<svg xmlns="http://www.w3.org/2000/svg" version="1.1" x="0" y="0" width="400" height="400" viewBox="0 0 400 400" enable-background="new 0 0 400 400" xml:space="preserve"><path fill="#4076BB" d="M335.3 109.4L347 97.8c3.2 1.5 7.2 0.9 9.9-1.7l2.1-2.1c3.4-3.4 3.4-9 0-12.4L344 66.7c-3.4-3.4-9-3.4-12.4 0l-2.1 2.1c-3.4 3.4-3.4 9 0 12.4l0.5 0.5 -10.8 10.8C291.6 66.9 255.8 50.1 216 46.5V35.8h1.6c8.1 0 14.6-6.5 14.6-14.6v-4.9c0-8.1-6.5-14.6-14.6-14.6h-35c-8.1 0-14.6 6.5-14.6 14.6v4.9c0 8.1 6.5 14.6 14.6 14.6h1.5v10.7C98.1 54.2 29.2 124.1 24.3 212c-5.3 96.9 69.1 180 166 185.4 3.3 0.2 6.6 0.3 9.8 0.3 93.3 0 170.4-73 175.5-166.2C378.2 185.3 362.7 142.4 335.3 109.4zM352.2 230.1c-4.6 83.6-76.1 148.5-160.6 143.8 -83.9-4.6-148.5-76.7-143.8-160.6C52.2 132.5 119 69.2 199.9 69.2c2.8 0 5.7 0.1 8.5 0.2C292.3 74.1 356.9 146.1 352.2 230.1zM314.7 217.2c0 4.4-3.6 8-8 8h-84.1c-3.4 11.5-14.1 19.9-26.8 19.9 -15.4 0-27.9-12.5-27.9-27.9 0-15.4 12.5-27.9 27.9-27.9 12.6 0 23.3 8.4 26.8 20h84.1C311.1 209.2 314.7 212.8 314.7 217.2z"/><path fill="#43B54A" d="M335.6 220.1h-9.5c0-0.3 0.1-0.5 0.1-0.8 0-10.9-8.9-19.7-19.7-19.7H230c-7-12.1-20.1-20-34.4-20 -0.2 0-0.4 0-0.7 0V79.5C272.6 79.5 335.6 142.5 335.6 220.1z"/></svg>